<?xml version="1.0" encoding="UTF-8" standalone="no"?>
<svg
   xmlns:dc="http://purl.org/dc/elements/1.1/"
   xmlns:cc="http://creativecommons.org/ns#"
   xmlns:rdf="http://www.w3.org/1999/02/22-rdf-syntax-ns#"
   xmlns:svg="http://www.w3.org/2000/svg"
   xmlns="http://www.w3.org/2000/svg"
   xmlns:sodipodi="http://sodipodi.sourceforge.net/DTD/sodipodi-0.dtd"
   xmlns:inkscape="http://www.inkscape.org/namespaces/inkscape"
   width="806.16589"
   height="247.3331"
   viewBox="0 0 806.16589 247.3331"
   version="1.1"
   id="SVGRoot"
   sodipodi:docname="joga_background.svg"
   inkscape:version="1.0.1 (3bc2e813f5, 2020-09-07)">
  <defs
     id="defs18" />
  <sodipodi:namedview
     id="base"
     pagecolor="#ffffff"
     bordercolor="#666666"
     borderopacity="1.0"
     inkscape:pageopacity="0.0"
     inkscape:pageshadow="2"
     inkscape:zoom="1"
     inkscape:cx="425.23976"
     inkscape:cy="243.45361"
     inkscape:document-units="px"
     inkscape:current-layer="layer1"
     inkscape:document-rotation="0"
     showgrid="false"
     inkscape:window-width="1920"
     inkscape:window-height="1017"
     inkscape:window-x="1072"
     inkscape:window-y="316"
     inkscape:window-maximized="1" />
  <metadata
     id="metadata21">
    <rdf:RDF>
      <cc:Work
         rdf:about="">
        <dc:format>image/svg+xml</dc:format>
        <dc:type
           rdf:resource="http://purl.org/dc/dcmitype/StillImage" />
        <dc:title></dc:title>
      </cc:Work>
    </rdf:RDF>
  </metadata>
  <g
     inkscape:label="Ebene 1"
     inkscape:groupmode="layer"
     id="layer1"
     transform="translate(80.512685,-67.02481)">
    <g
       aria-label="JOGA"
       id="text33"
       style="font-style:normal;font-variant:normal;font-weight:normal;font-stretch:normal;font-size:341.333px;line-height:1.25;font-family:Bahnschrift;-inkscape-font-specification:Bahnschrift;opacity:0.149533;fill:#1e88e5;fill-opacity:1;stroke:none">
      <path
         d="m -18.67941,314.35791 q -19.333315,0 -35.499967,-7.83333 -16.166651,-7.83332 -26.333308,-21.99998 l 27.833307,-19.99998 q 4.666662,8.16666 13.499987,12.66666 8.833325,4.49999 20.499981,4.49999 19.833314,0 30.666637,-12.33332 10.999989,-12.33332 10.999989,-34.66663 V 69.524808 H 56.987184 V 234.85798 q 0,25.16665 -8.833325,42.99996 -8.833325,17.83332 -25.833309,27.16664 -16.9999833,9.33333 -40.99996,9.33333 z"
         style="font-size:341.333px;fill:#1e88e5;fill-opacity:1"
         id="path858" />
      <path
         d="m 197.15371,314.35791 q -25.33331,0 -44.66662,-10.99999 -19.33332,-11.16666 -29.99997,-31.33331 -10.49999,-20.33331 -10.49999,-46.99995 v -68.6666 q 0,-26.66664 10.49999,-46.83329 10.66665,-20.333314 29.99997,-31.333304 19.33331,-11.166656 44.66662,-11.166656 25.33331,0 44.66663,11.166656 19.33331,10.99999 29.8333,31.333304 10.66666,20.16665 10.66666,46.83329 v 68.6666 q 0,26.66664 -10.66666,46.99995 -10.49999,20.16665 -29.8333,31.33331 -19.33332,10.99999 -44.66663,10.99999 z m 0,-33.49997 q 14.99999,0 26.33331,-6.66666 11.49999,-6.83333 17.66665,-19.16665 6.33333,-12.49999 6.33333,-28.8333 v -70.99994 q 0,-16.33331 -6.33333,-28.66664 -6.16666,-12.49998 -17.66665,-19.16664 -11.33332,-6.83333 -26.33331,-6.83333 -14.99998,0 -26.49997,6.83333 -11.33332,6.66666 -17.66665,19.16664 -6.16666,12.33333 -6.16666,28.66664 v 70.99994 q 0,16.33331 6.16666,28.8333 6.33333,12.33332 17.66665,19.16665 11.49999,6.66666 26.49997,6.66666 z"
         style="font-size:341.333px;fill:#1e88e5;fill-opacity:1"
         id="path860" />
      <path
         d="m 496.32009,181.35803 v 42.3333 q 0,26.99997 -10.49999,47.66662 -10.49999,20.49998 -29.8333,31.8333 -19.16665,11.16666 -44.49996,11.16666 -25.66664,0 -45.16663,-10.49999 -19.33331,-10.66666 -29.99997,-29.99997 -10.66665,-19.33332 -10.66665,-44.83329 v -71.49994 q 0,-26.99997 10.49999,-47.49995 10.49999,-20.499981 29.66663,-31.666637 19.33332,-11.333323 44.66663,-11.333323 20.83331,0 38.3333,8.999992 17.66665,8.833325 29.49997,25.166638 11.83332,16.33332 15.99998,37.8333 v 0 h -36.8333 v 0 q -2.99999,-12.16665 -10.16665,-20.83331 -7.16666,-8.83333 -16.83332,-13.33332 -9.66666,-4.66666 -19.99998,-4.66666 -14.99999,0 -26.33331,7.16666 -11.33332,7.16666 -17.49998,20.16664 -6.16666,12.83332 -6.16666,29.99997 v 71.49994 q 0,15.66665 6.33332,27.49997 6.33333,11.66666 17.83332,18.16665 11.66666,6.49999 26.83331,6.49999 14.99998,0 26.33331,-6.66666 11.33332,-6.83332 17.49998,-19.66665 6.16666,-12.83332 6.16666,-30.49997 V 213.858 h -49.16662 v -32.49997 z"
         style="font-size:341.333px;fill:#1e88e5;fill-opacity:1"
         id="path862" />
      <path
         d="m 607.31999,69.524808 h 28.99997 L 725.65321,311.85791 H 688.98658 L 621.81998,116.3581 554.65338,311.85791 H 517.98674 Z M 559.15337,226.35799 h 127.49988 v 32.3333 H 559.15337 Z"
         style="font-size:341.333px;fill:#1e88e5;fill-opacity:1"
         id="path864" />
    </g>
  </g>
</svg>
